<svg width="25" height="35" viewBox="0 0 25 35" fill="none" xmlns="http://www.w3.org/2000/svg">
<path d="M10.2905 2.83016C10.8245 3.17826 11.2385 3.66622 11.4589 4.20741C11.6126 4.60534 11.6416 5.01399 11.5424 5.38376C11.3417 6.1192 11.0949 6.83948 10.9669 7.59659C10.8291 8.41428 10.7945 9.26725 10.7385 10.108C10.7231 10.45 10.6141 10.7679 10.421 11.0344C10.228 11.301 9.95642 11.5083 9.62962 11.6387C8.54235 12.1267 7.47376 12.6338 6.40344 13.1455C6.3661 13.1749 6.33822 13.2128 6.32187 13.2565C6.30551 13.3003 6.3011 13.3487 6.30894 13.3982C6.92862 16.7212 8.64102 19.9821 11.2158 22.7423C11.5749 23.13 11.5667 23.1345 12.0654 23.0625C13.2622 22.8779 14.468 22.6864 15.6631 22.5064C15.9816 22.4623 16.3206 22.4865 16.6552 22.5771C16.9898 22.6677 17.3116 22.8224 17.5968 23.0299C18.425 23.5976 19.2257 24.2126 20.077 24.7446C20.8 25.1927 21.5516 25.5929 22.3243 25.9413C22.869 26.1695 23.3421 26.5523 23.6604 27.0222C23.9788 27.492 24.122 28.019 24.0649 28.5104C24.0652 28.5361 24.0707 28.5624 24.0811 28.588L22.2866 33.3862C22.0468 33.62 21.7844 33.8336 21.5014 34.0254C21.0161 34.3036 20.4143 34.2537 19.8 34.1252L18.1693 33.3962C17.7551 33.1732 17.3336 32.9523 16.9229 32.72C15.3148 31.8283 13.7772 30.813 12.3309 29.6879C8.29469 26.5456 5.10244 22.5998 3.10721 18.287C1.67722 15.2333 0.886083 12.0634 0.779271 8.95943C0.692076 6.9571 0.897354 5.00239 1.38988 3.14503C1.45686 2.88819 1.50722 2.62392 1.56503 2.36569L2.07304 1.00736C2.31285 0.77358 2.5753 0.559913 2.85821 0.368137C3.3489 0.132892 3.95788 0.0971857 4.55967 0.268376L10.2905 2.83016Z" fill="white"/>
</svg>
