<svg width="30" height="42" viewBox="0 0 30 42" fill="none" xmlns="http://www.w3.org/2000/svg">
<path d="M15.0013 41.8346C14.5152 41.8346 14.0985 41.6958 13.7513 41.418C13.4041 41.1402 13.1437 40.7756 12.9701 40.3242C12.3103 38.3798 11.477 36.5569 10.4701 34.8555C9.49783 33.1541 8.1263 31.1576 6.35547 28.8659C4.58464 26.5742 3.14366 24.3867 2.03255 22.3034C0.956163 20.2201 0.417969 17.7027 0.417969 14.7513C0.417969 10.6888 1.82422 7.2513 4.63672 4.4388C7.48394 1.59158 10.9388 0.167969 15.0013 0.167969C19.0638 0.167969 22.5013 1.59158 25.3138 4.4388C28.161 7.2513 29.5846 10.6888 29.5846 14.7513C29.5846 17.911 28.977 20.5499 27.7617 22.668C26.5812 24.7513 25.2096 26.8173 23.6471 28.8659C21.7721 31.3659 20.3485 33.4492 19.3763 35.1159C18.4388 36.7478 17.6576 38.4839 17.0326 40.3242C16.8589 40.8103 16.5812 41.1923 16.1992 41.4701C15.852 41.7131 15.4527 41.8346 15.0013 41.8346ZM15.0013 19.9596C16.4596 19.9596 17.6923 19.4562 18.6992 18.4492C19.7062 17.4423 20.2096 16.2096 20.2096 14.7513C20.2096 13.293 19.7062 12.0603 18.6992 11.0534C17.6923 10.0464 16.4596 9.54297 15.0013 9.54297C13.543 9.54297 12.3103 10.0464 11.3034 11.0534C10.2964 12.0603 9.79297 13.293 9.79297 14.7513C9.79297 16.2096 10.2964 17.4423 11.3034 18.4492C12.3103 19.4562 13.543 19.9596 15.0013 19.9596Z" fill="#12355B"/>
</svg>
