<svg width="25" height="40" viewBox="0 0 25 40" fill="none" xmlns="http://www.w3.org/2000/svg">
<path d="M10.2885 3.85798C10.8226 4.25201 11.2366 4.80435 11.457 5.41695C11.6106 5.86739 11.6397 6.32996 11.5405 6.74851C11.3398 7.58098 11.093 8.3963 10.9649 9.2533C10.8272 10.1789 10.7925 11.1444 10.7366 12.0961C10.7211 12.4832 10.6122 12.843 10.4191 13.1448C10.226 13.4465 9.95447 13.6812 9.62767 13.8288C8.5404 14.3811 7.47181 14.9551 6.40148 15.5344C6.36415 15.5676 6.33627 15.6105 6.31992 15.66C6.30356 15.7095 6.29914 15.7643 6.30699 15.8204C6.92667 19.5819 8.63906 23.273 11.2138 26.3973C11.5729 26.8363 11.5648 26.8413 12.0635 26.7599C13.2603 26.5508 14.4661 26.3341 15.6612 26.1303C15.9796 26.0805 16.3186 26.1078 16.6532 26.2103C16.9879 26.3129 17.3096 26.488 17.5948 26.7229C18.423 27.3655 19.2238 28.0617 20.075 28.6639C20.7981 29.171 21.5497 29.624 22.3224 30.0185C22.867 30.2768 23.3401 30.71 23.6585 31.2419C23.9768 31.7738 24.12 32.3703 24.063 32.9266C24.0632 32.9556 24.0687 32.9854 24.0792 33.0144L22.2847 38.4456C22.0449 38.7103 21.7824 38.9521 21.4995 39.1692C21.0142 39.4841 20.4124 39.4276 19.798 39.2821L18.1674 38.457C17.7532 38.2046 17.3317 37.9545 16.9209 37.6916C15.3129 36.6822 13.7752 35.5329 12.329 34.2594C8.29273 30.7025 5.10049 26.2361 3.10525 21.3542C1.67527 17.8976 0.884129 14.3095 0.777317 10.796C0.690123 8.52944 0.895401 6.31682 1.38793 4.2144C1.45491 3.92367 1.50527 3.62453 1.56308 3.33222L2.07109 1.79468C2.3109 1.53005 2.57335 1.28819 2.85626 1.07111C3.34694 0.80483 3.95593 0.764413 4.55772 0.95819L10.2885 3.85798Z" fill="#12355B"/>
</svg>
