<svg width="42" height="34" viewBox="0 0 42 34" fill="none" xmlns="http://www.w3.org/2000/svg">
<path d="M4.33464 33.6654C3.1888 33.6654 2.19922 33.2661 1.36589 32.4674C0.567274 31.6341 0.167969 30.6445 0.167969 29.4987V4.4987C0.167969 3.35286 0.567274 2.38064 1.36589 1.58203C2.19922 0.748697 3.1888 0.332031 4.33464 0.332031H37.668C38.8138 0.332031 39.786 0.748697 40.5846 1.58203C41.418 2.38064 41.8346 3.35286 41.8346 4.4987V29.4987C41.8346 30.6445 41.418 31.6341 40.5846 32.4674C39.786 33.2661 38.8138 33.6654 37.668 33.6654H4.33464ZM21.0013 19.082L37.668 8.66537V4.4987L21.0013 14.9154L4.33464 4.4987V8.66537L21.0013 19.082Z" fill="#12355B"/>
</svg>
