<svg width="13" height="25" viewBox="0 0 13 25" fill="none" xmlns="http://www.w3.org/2000/svg">
<path d="M10.96 0L12.195 0.1L13 0.17V4.15C12.92 4.15 12.835 4.15 12.75 4.15C11.9075 4.15 11.0625 4.15 10.2175 4.195C9.1375 4.24 8.545 4.8 8.5 5.8825C8.455 6.965 8.5 8.03 8.5 9.1325H12.855L12.28 13.595H8.485C8.485 13.6825 8.47 13.7475 8.47 13.81C8.47 17.505 8.47 21.1992 8.47 24.8925C8.47 24.925 8.47 24.9575 8.47 24.99H3.895C3.895 24.885 3.875 24.78 3.875 24.675C3.875 21.095 3.875 17.5158 3.875 13.9375V13.61H0.0625V9.15H3.8725V8.83C3.8725 7.66 3.85 6.4875 3.905 5.33C3.9775 3.7475 4.495 2.33 5.735 1.2775C6.57137 0.58108 7.59889 0.154034 8.6825 0.0525C8.76 0.0525 8.8375 0.0175 8.915 0H10.96Z" fill="white"/>
</svg>
