<svg width="25" height="25" viewBox="0 0 25 25" fill="none" xmlns="http://www.w3.org/2000/svg">
<g clip-path="url(#clip0_118_96)">
<path d="M8.52814 0H16.4731C16.6981 0.0175 16.9231 0.0275 17.1481 0.0525C18.0039 0.107163 18.8561 0.208985 19.7006 0.3575C20.7467 0.564403 21.7225 1.03552 22.5351 1.72604C23.3477 2.41655 23.9701 3.3035 24.3431 4.3025C24.7841 5.4942 24.9904 6.75995 24.9506 8.03C24.9506 10.78 24.9506 13.545 24.9506 16.3025C24.9499 17.1797 24.899 18.0561 24.7981 18.9275C24.6666 20.1462 24.2021 21.3052 23.4556 22.2775C22.1056 24.0125 20.2631 24.75 18.1456 24.8975C17.6031 24.94 17.0631 24.9675 16.5206 25H8.52064L8.13814 24.9575C7.2648 24.9152 6.39437 24.8259 5.53064 24.69C2.67064 24.0975 0.803137 22.1175 0.280637 19.235C0.10422 18.0938 0.0272644 16.9395 0.0506372 15.785C0.0406372 13.5975 0.0256372 11.4075 0.0631372 9.22C0.0685226 8.04907 0.152042 6.87981 0.313137 5.72C0.426454 4.89236 0.703174 4.0955 1.12721 3.37576C1.55124 2.65602 2.11413 2.02776 2.78314 1.5275C4.00064 0.5925 5.42314 0.2125 6.92814 0.1C7.46064 0.06 8.00064 0.0325 8.52814 0ZM12.5006 22.7875V22.75C13.4106 22.75 14.3206 22.7675 15.2281 22.75C16.4781 22.72 17.7281 22.77 18.9781 22.52C20.7281 22.165 21.9131 21.14 22.4231 19.3975C22.6397 18.545 22.7389 17.6669 22.7181 16.7875C22.7481 14.7225 22.7756 12.655 22.7556 10.5875C22.7406 9.1825 22.7006 7.7725 22.5656 6.375C22.3781 4.4225 21.1356 3.065 19.2356 2.58C18.2106 2.33 17.1581 2.33 16.1131 2.31C14.0506 2.285 11.9881 2.295 9.92564 2.31C8.67564 2.31 7.42564 2.2875 6.21064 2.515C4.34814 2.8575 3.11314 3.915 2.62564 5.785C2.42201 6.66674 2.32797 7.57023 2.34564 8.475C2.32564 11.17 2.32564 13.8633 2.34564 16.555C2.35303 17.3437 2.41821 18.1308 2.54064 18.91C2.61981 19.5133 2.83059 20.0917 3.15805 20.6045C3.48551 21.1173 3.92166 21.5519 4.43564 21.8775C5.26011 22.3768 6.2043 22.6437 7.16814 22.65C8.94314 22.72 10.7231 22.75 12.5006 22.7875Z" fill="white"/>
<path d="M18.9396 12.5031C18.9386 13.7728 18.5612 15.0136 17.855 16.0688C17.1489 17.1239 16.1457 17.946 14.9724 18.4311C13.7991 18.9162 12.5082 19.0425 11.2631 18.794C10.0181 18.5455 8.87459 17.9334 7.97734 17.0351C7.08008 16.1368 6.46933 14.9926 6.2223 13.7472C5.97527 12.5018 6.10306 11.2112 6.5895 10.0384C7.07595 8.86564 7.89921 7.86345 8.95519 7.15853C10.0112 6.45361 11.2525 6.07763 12.5221 6.07813C14.2234 6.08472 15.853 6.76399 17.0553 7.9677C18.2576 9.17141 18.935 10.8018 18.9396 12.5031ZM12.5146 16.6606C13.3376 16.6641 14.1431 16.4232 14.8291 15.9685C15.5151 15.5138 16.0507 14.8657 16.3681 14.1063C16.6855 13.3469 16.7703 12.5104 16.6118 11.7028C16.4534 10.8952 16.0588 10.1528 15.4781 9.56957C14.8974 8.98638 14.1566 8.58868 13.3497 8.42684C12.5427 8.265 11.7059 8.3463 10.9452 8.66045C10.1845 8.9746 9.53412 9.50746 9.07651 10.1915C8.6189 10.8756 8.37462 11.6801 8.37461 12.5031C8.37197 13.0484 8.47713 13.5887 8.68404 14.0932C8.89094 14.5977 9.19551 15.0562 9.58024 15.4426C9.96497 15.829 10.4223 16.1355 10.9259 16.3445C11.4294 16.5535 11.9694 16.661 12.5146 16.6606Z" fill="white"/>
<path d="M17.6896 5.80256C17.6931 5.5055 17.7847 5.21617 17.9529 4.97126C18.121 4.72635 18.3581 4.53689 18.6341 4.4269C18.9101 4.31691 19.2125 4.29135 19.503 4.35345C19.7935 4.41556 20.0591 4.56253 20.266 4.77573C20.4728 4.98894 20.6118 5.25878 20.6651 5.55104C20.7184 5.84329 20.6838 6.1448 20.5655 6.41734C20.4473 6.68988 20.2508 6.92116 20.0009 7.08188C19.751 7.24259 19.4591 7.32549 19.1621 7.32006C18.766 7.31283 18.3888 7.1492 18.113 6.86489C17.8371 6.58059 17.6849 6.19869 17.6896 5.80256Z" fill="white"/>
</g>
<defs>
<clipPath id="clip0_118_96">
<rect width="25" height="25" fill="white"/>
</clipPath>
</defs>
</svg>
