<svg width="25" height="25" viewBox="0 0 25 25" fill="none" xmlns="http://www.w3.org/2000/svg">
<path d="M24.6605 25H17.4105C17.3961 24.9717 17.3803 24.9441 17.363 24.9175L10.863 15.4525C10.8305 15.4075 10.7905 15.37 10.748 15.32L10.5755 15.5L6.35297 20.4275C5.04464 21.9508 3.73964 23.475 2.43797 25H0.292969C0.350469 24.9225 0.400469 24.84 0.462969 24.7675L9.04047 14.7675C9.29047 14.475 9.54047 14.18 9.79047 13.8875C9.74047 13.815 9.70547 13.76 9.67047 13.705C6.70047 9.38333 3.73297 5.05917 0.767969 0.7325C0.602969 0.5 0.450469 0.25 0.292969 0H7.54297C7.55816 0.0283694 7.57485 0.0559085 7.59297 0.0825L13.7505 9.045C13.778 9.0825 13.8105 9.1175 13.8505 9.165C13.9205 9.09 13.983 9.0275 14.038 8.9625L21.098 0.7325C21.3005 0.5 21.5005 0.25 21.6855 0H23.8805C23.8605 0.0275 23.8455 0.055 23.8255 0.08L16.3455 8.7925C15.8338 9.3875 15.3213 9.985 14.808 10.585C14.863 10.6675 14.9055 10.735 14.953 10.8025L24.5005 24.71C24.553 24.8025 24.603 24.9025 24.6605 25ZM3.21547 1.625L3.36547 1.8575C8.34547 8.99583 13.3246 16.1333 18.303 23.27C18.3368 23.3282 18.3866 23.3755 18.4463 23.4065C18.5061 23.4375 18.5734 23.4508 18.6405 23.445C19.583 23.445 20.5255 23.445 21.468 23.445C21.5355 23.445 21.6055 23.445 21.7055 23.445L21.533 23.1775L19.733 20.6C15.3696 14.35 11.0088 8.1 6.65047 1.85C6.61327 1.77701 6.55566 1.71641 6.48464 1.67557C6.41362 1.63474 6.33226 1.61543 6.25047 1.62C5.32547 1.62 4.40047 1.62 3.47297 1.62L3.21547 1.625Z" fill="white"/>
</svg>
